<?xml version="1.0" encoding="UTF-8" standalone="no"?>
<!-- Created with Inkscape (http://www.inkscape.org/) -->

<svg
   xmlns:dc="http://purl.org/dc/elements/1.1/"
   xmlns:cc="http://creativecommons.org/ns#"
   xmlns:rdf="http://www.w3.org/1999/02/22-rdf-syntax-ns#"
   xmlns:svg="http://www.w3.org/2000/svg"
   xmlns="http://www.w3.org/2000/svg"
   xmlns:sodipodi="http://sodipodi.sourceforge.net/DTD/sodipodi-0.dtd"
   xmlns:inkscape="http://www.inkscape.org/namespaces/inkscape"
   width="210mm"
   height="297mm"
   viewBox="0 0 210 297"
   version="1.1"
   id="svg8"
   inkscape:version="0.92.3 (2405546, 2018-03-11)"
   sodipodi:docname="drawing.svg">
  <defs
     id="defs2" />
  <sodipodi:namedview
     id="base"
     pagecolor="#ffffff"
     bordercolor="#666666"
     borderopacity="1.0"
     inkscape:pageopacity="0.0"
     inkscape:pageshadow="2"
     inkscape:zoom="0.175"
     inkscape:cx="491.95638"
     inkscape:cy="-330.81393"
     inkscape:document-units="mm"
     inkscape:current-layer="layer1"
     showgrid="false"
     inkscape:window-width="1366"
     inkscape:window-height="745"
     inkscape:window-x="-8"
     inkscape:window-y="-8"
     inkscape:window-maximized="1" />
  <metadata
     id="metadata5">
    <rdf:RDF>
      <cc:Work
         rdf:about="">
        <dc:format>image/svg+xml</dc:format>
        <dc:type
           rdf:resource="http://purl.org/dc/dcmitype/StillImage" />
        <dc:title></dc:title>
      </cc:Work>
    </rdf:RDF>
  </metadata>
  <g
     inkscape:label="Layer 1"
     inkscape:groupmode="layer"
     id="layer1">
    <g
       id="g3808">
      <rect
         y="125.39881"
         x="-869.34528"
         height="175.21895"
         width="291.04166"
         id="rect10"
         style="fill:#999999;stroke-width:0.58859175" />
      <rect
         y="133.56578"
         x="-855.9812"
         height="158.88498"
         width="264.31332"
         id="rect10-9"
         style="fill:#ffffff;stroke-width:0.53413004" />
      <rect
         y="306.55737"
         x="-787.67542"
         height="53.456627"
         width="115.82269"
         id="rect3730"
         style="fill:#4d4d4d;stroke-width:0.51971716" />
      <rect
         y="365.9537"
         x="-844.10187"
         height="8.9094381"
         width="237.58501"
         id="rect3732"
         style="fill:#4d4d4d;stroke-width:0.51971716" />
    </g>
    <g
       id="g3766"
       transform="translate(102.80952,-51.404762)">
      <path
         inkscape:connector-curvature="0"
         id="path3740"
         d="m -209.02084,10.494007 a 100.16369,53.294642 0 0 0 -98.6596,44.441215 62.366069,51.404763 0 0 0 -41.94731,-13.447241 62.366069,51.404763 0 0 0 -62.36622,51.405131 62.366069,51.404763 0 0 0 62.36622,51.404608 62.366069,51.404763 0 0 0 30.76349,-6.76289 90.336303,51.404763 0 0 0 84.89714,33.97725 90.336303,51.404763 0 0 0 90.33609,-51.40513 90.336303,51.404763 0 0 0 -3.65404,-14.3707 100.16369,53.294642 0 0 0 38.42815,-41.947305 100.16369,53.294642 0 0 0 -100.16392,-53.294938 z m 99.78565,134.559743 a 1.8898809,1.1339285 0 0 0 -1.88982,1.13378 1.8898809,1.1339285 0 0 0 1.88982,1.13378 1.8898809,1.1339285 0 0 0 1.88981,-1.13378 1.8898809,1.1339285 0 0 0 -1.88981,-1.13378 z"
         style="fill:#4d4d4d;stroke-width:0.26458332" />
      <path
         inkscape:connector-curvature="0"
         id="path3740-9"
         d="m -170.97095,49.811501 a 100.16369,53.294642 0 0 0 -98.6596,44.441217 62.36607,51.404763 0 0 0 -41.94731,-13.447242 62.36607,51.404763 0 0 0 -62.36622,51.405124 62.36607,51.404763 0 0 0 62.36622,51.40462 62.36607,51.404763 0 0 0 30.7635,-6.76289 90.336304,51.404763 0 0 0 84.89714,33.97724 90.336304,51.404763 0 0 0 90.33609,-51.40512 90.336304,51.404763 0 0 0 -3.65406,-14.3707 100.16369,53.294642 0 0 0 38.428169,-41.94731 100.16369,53.294642 0 0 0 -100.163929,-53.294939 z m 99.785649,134.559749 a 1.8898809,1.1339285 0 0 0 -1.88981,1.13378 1.8898809,1.1339285 0 0 0 1.88981,1.13378 1.8898809,1.1339285 0 0 0 1.88982,-1.13378 1.8898809,1.1339285 0 0 0 -1.88982,-1.13378 z"
         style="fill:#999999;stroke-width:0.26458332" />
    </g>
    <g
       id="g3820"
       transform="translate(57.452381,-71.059524)">
      <rect
         y="152.61307"
         x="141.74104"
         height="175.21895"
         width="291.04166"
         id="rect10-1"
         style="fill:#999999;stroke-width:0.58859181" />
      <rect
         y="160.78003"
         x="155.10512"
         height="158.88499"
         width="264.31332"
         id="rect10-9-8"
         style="fill:#ffffff;stroke-width:0.53413004" />
      <rect
         y="333.77164"
         x="223.41093"
         height="53.456631"
         width="115.82269"
         id="rect3730-0"
         style="fill:#4d4d4d;stroke-width:0.51971716" />
      <rect
         y="393.16794"
         x="166.98445"
         height="8.9094381"
         width="237.58501"
         id="rect3732-1"
         style="fill:#4d4d4d;stroke-width:0.51971716" />
    </g>
    <g
       id="g3814">
      <rect
         y="389.98212"
         x="-325.4375"
         height="175.21895"
         width="291.04166"
         id="rect10-4"
         style="fill:#999999;stroke-width:0.58859181" />
      <rect
         y="398.14908"
         x="-312.07343"
         height="158.88499"
         width="264.31332"
         id="rect10-9-0"
         style="fill:#ffffff;stroke-width:0.53413004" />
      <rect
         y="571.14062"
         x="-243.76764"
         height="53.456631"
         width="115.82269"
         id="rect3730-6"
         style="fill:#4d4d4d;stroke-width:0.51971716" />
      <rect
         y="630.53699"
         x="-300.19409"
         height="8.9094381"
         width="237.58501"
         id="rect3732-3"
         style="fill:#4d4d4d;stroke-width:0.51971716" />
    </g>
    <text
       xml:space="preserve"
       style="font-style:normal;font-weight:normal;font-size:49.79132462px;line-height:1.25;font-family:sans-serif;letter-spacing:0px;word-spacing:0px;fill:#000000;fill-opacity:1;stroke:none;stroke-width:1.24478304"
       x="-851.89203"
       y="495.97794"
       id="text3824"><tspan
         sodipodi:role="line"
         id="tspan3822"
         x="-851.89203"
         y="495.97794"
         style="stroke-width:1.24478304">Customer</tspan></text>
    <text
       xml:space="preserve"
       style="font-style:normal;font-weight:normal;font-size:49.79132462px;line-height:1.25;font-family:sans-serif;letter-spacing:0px;word-spacing:0px;fill:#000000;fill-opacity:1;stroke:none;stroke-width:1.24478304"
       x="-318.80136"
       y="206.19464"
       id="text3824-0"><tspan
         sodipodi:role="line"
         id="tspan3822-3"
         x="-318.80136"
         y="206.19464"
         style="stroke-width:1.24478304">Internet</tspan></text>
    <text
       xml:space="preserve"
       style="font-style:normal;font-weight:normal;font-size:49.79132462px;line-height:1.25;font-family:sans-serif;letter-spacing:0px;word-spacing:0px;fill:#000000;fill-opacity:1;stroke:none;stroke-width:1.24478304"
       x="-290.58411"
       y="745.67719"
       id="text3824-0-0"><tspan
         sodipodi:role="line"
         id="tspan3822-3-7"
         x="-290.58411"
         y="745.67719"
         style="stroke-width:1.24478304">Payment gateway </tspan><tspan
         sodipodi:role="line"
         x="-290.58411"
         y="807.91632"
         style="stroke-width:1.24478304"
         id="tspan3862">i.e Paystack and Flutterwave</tspan></text>
    <text
       xml:space="preserve"
       style="font-style:normal;font-weight:normal;font-size:49.79132462px;line-height:1.25;font-family:sans-serif;letter-spacing:0px;word-spacing:0px;fill:#000000;fill-opacity:1;stroke:none;stroke-width:1.24478304"
       x="267.30875"
       y="425.15341"
       id="text3824-0-9"><tspan
         sodipodi:role="line"
         id="tspan3822-3-8"
         x="267.30875"
         y="425.15341"
         style="stroke-width:1.24478304">Internet</tspan></text>
  </g>
</svg>
